<svg width="123" height="89" viewBox="0 0 123 89" fill="none" xmlns="http://www.w3.org/2000/svg">
<g clip-path="url(#clip0_11_92)">
<path d="M121.68 33.34C121.34 33.06 118.26 30.72 111.65 30.72C109.94 30.72 108.17 30.89 106.46 31.18C105.21 22.46 97.97 18.24 97.68 18.02L95.91 16.99L94.77 18.64C93.35 20.86 92.26 23.37 91.64 25.93C90.44 30.89 91.18 35.56 93.69 39.55C90.67 41.26 85.77 41.66 84.74 41.72H3.80999C1.69999 41.72 -0.0100145 43.43 -0.0100145 45.54C-0.120014 52.61 1.06999 59.67 3.51999 66.34C6.30999 73.63 10.47 79.05 15.83 82.35C21.87 86.05 31.73 88.16 42.84 88.16C47.85 88.16 52.87 87.7 57.83 86.79C64.73 85.54 71.34 83.14 77.43 79.67C82.45 76.76 86.95 73.06 90.77 68.73C97.21 61.49 101.03 53.4 103.82 46.22C104.22 46.22 104.56 46.22 104.96 46.22C111.97 46.22 116.3 43.43 118.69 41.03C120.29 39.55 121.48 37.72 122.34 35.67L122.85 34.19L121.68 33.34ZM71.59 39.38H82.42C82.93 39.38 83.39 38.98 83.39 38.41V28.72C83.39 28.21 82.99 27.75 82.42 27.75H71.59C71.08 27.75 70.62 28.15 70.62 28.72V38.41C70.68 38.98 71.08 39.38 71.59 39.38ZM56.49 11.63H67.32C67.83 11.63 68.29 11.23 68.29 10.66V0.97C68.29 0.46 67.83 0 67.32 0H56.49C55.98 0 55.52 0.4 55.52 0.97V10.66C55.52 11.17 55.97 11.63 56.49 11.63ZM56.49 25.53H67.32C67.83 25.53 68.29 25.07 68.29 24.56V14.87C68.29 14.36 67.83 13.9 67.32 13.9H56.49C55.98 13.9 55.52 14.3 55.52 14.87V24.56C55.52 25.08 55.97 25.53 56.49 25.53ZM41.5 25.53H52.33C52.84 25.53 53.3 25.07 53.3 24.56V14.87C53.3 14.36 52.9 13.9 52.33 13.9H41.5C40.99 13.9 40.53 14.3 40.53 14.87V24.56C40.53 25.08 40.93 25.53 41.5 25.53ZM26.28 25.53H37.11C37.62 25.53 38.08 25.07 38.08 24.56V14.87C38.08 14.36 37.68 13.9 37.11 13.9H26.28C25.77 13.9 25.31 14.3 25.31 14.87V24.56C25.37 25.08 25.77 25.53 26.28 25.53ZM56.49 39.38H67.32C67.83 39.38 68.29 38.98 68.29 38.41V28.72C68.29 28.21 67.89 27.75 67.32 27.75H56.49C55.98 27.75 55.52 28.15 55.52 28.72V38.41C55.52 38.98 55.97 39.38 56.49 39.38ZM41.5 39.38H52.33C52.84 39.38 53.3 38.98 53.3 38.41V28.72C53.3 28.21 52.9 27.75 52.33 27.75H41.5C40.99 27.75 40.53 28.15 40.53 28.72V38.41C40.53 38.98 40.93 39.38 41.5 39.38ZM26.28 39.38H37.11C37.62 39.38 38.08 38.98 38.08 38.41V28.72C38.08 28.21 37.68 27.75 37.11 27.75H26.28C25.77 27.75 25.31 28.15 25.31 28.72V38.41C25.37 38.98 25.77 39.38 26.28 39.38ZM11.35 39.38H22.18C22.69 39.38 23.15 38.98 23.15 38.41V28.72C23.15 28.21 22.75 27.75 22.18 27.75H11.35C10.84 27.75 10.38 28.15 10.38 28.72V38.41C10.44 38.98 10.84 39.38 11.35 39.38Z" fill="#FA4454"/>
</g>
<defs>
<clipPath id="clip0_11_92">
<rect width="122.88" height="88.17" fill="white"/>
</clipPath>
</defs>
</svg>
