<svg width="103" height="103" viewBox="0 0 103 103" fill="none" xmlns="http://www.w3.org/2000/svg">
<path d="M50.9899 19.0846C46.2306 22.4319 40.8365 26.226 37.9464 32.5029C32.9265 43.4533 48.2187 55.3986 48.8722 55.9017C49.0241 56.0189 49.2058 56.077 49.3872 56.077C49.5796 56.077 49.7725 56.0112 49.9292 55.8801C50.2328 55.6262 50.3189 55.1949 50.1365 54.8437C50.0811 54.737 44.5921 44.075 44.7961 36.4257C44.8683 33.7619 48.5966 30.7398 52.5437 27.54C56.1588 24.6094 60.2565 21.2878 62.6542 17.4022C67.9176 8.84914 62.0676 0.438965 62.0078 0.355215C61.7755 0.0289928 61.3466 -0.0895412 60.9799 0.0715435C60.6134 0.232966 60.4105 0.62943 60.4942 1.02083C60.5061 1.07621 61.6438 6.63786 58.4781 12.3677C57.1736 14.7353 54.3082 16.7511 50.9899 19.0846Z" fill="#FA4454"/>
<path d="M71.0411 22.8564C71.3767 22.6035 71.4753 22.1422 71.272 21.7741C71.0687 21.406 70.626 21.2435 70.2329 21.3928C69.4245 21.7001 50.4344 29.0198 50.4344 37.8646C50.4344 43.9612 53.0388 47.1822 54.9404 49.5343C55.6863 50.4566 56.3303 51.2533 56.5424 51.9334C57.1398 53.8934 55.7245 57.4359 55.1295 58.6355C54.9579 58.9806 55.042 59.3983 55.3338 59.6503C55.4915 59.7864 55.6884 59.8552 55.8856 59.8552C56.0534 59.8552 56.2219 59.8053 56.3675 59.704C56.6941 59.4767 64.3474 54.0657 62.9747 47.5463C62.4634 45.0685 61.2456 43.2578 60.1711 41.6601C58.5065 39.1851 57.3043 37.3969 59.1282 34.0945C61.2659 30.2434 70.9435 22.9297 71.0411 22.8564Z" fill="#FA4454"/>
<path d="M21.6097 59.9961C21.2841 60.9704 21.4378 61.9379 22.0537 62.7933C24.1124 65.6509 31.4041 67.225 42.5868 67.225C42.5875 67.225 42.5878 67.225 42.5882 67.225C44.1034 67.225 45.7031 67.1952 47.3417 67.1365C65.2207 66.4962 71.8522 60.9265 72.1258 60.6897C72.424 60.4317 72.5037 60.0018 72.3183 59.654C72.1329 59.3065 71.733 59.1319 71.3511 59.2369C65.0546 60.9562 53.2964 61.5664 45.1409 61.5664C36.0151 61.5664 31.3676 60.9092 30.2299 60.424C30.8138 59.6222 34.4147 58.1907 38.8768 57.313C39.3033 57.2293 39.5965 56.8355 39.5542 56.4029C39.512 55.9703 39.1487 55.6404 38.714 55.6404C36.0982 55.6407 22.9807 55.8508 21.6097 59.9961Z" fill="#FA4454"/>
<path d="M81.4366 54.2598C77.7489 54.2598 74.2519 56.1077 74.1047 56.1864C73.7636 56.3691 73.5907 56.7601 73.6843 57.1356C73.7781 57.5108 74.1155 57.7746 74.5025 57.7749C74.5809 57.7753 82.3687 57.8388 83.0741 62.2883C83.6989 66.127 75.7054 72.3468 72.5725 74.4197C72.2342 74.6436 72.1028 75.0765 72.2598 75.4503C72.3932 75.7688 72.7036 75.968 73.0379 75.968C73.0963 75.968 73.1554 75.962 73.2142 75.9491C73.9578 75.7904 91.4012 71.9467 89.557 61.7902C88.4318 55.566 84.5198 54.2598 81.4366 54.2598Z" fill="#FA4454"/>
<path d="M69.4741 73.1769C69.5349 72.8514 69.3995 72.5204 69.1286 72.3307L64.9462 69.4011C64.7422 69.2582 64.4845 69.2133 64.2451 69.2768C64.2015 69.2883 59.8276 70.4378 53.4774 71.143C50.9571 71.4256 48.1343 71.5749 45.3134 71.5749C38.9649 71.5749 34.8139 70.8289 34.2094 70.2818C34.1294 70.1282 34.1547 70.0582 34.1689 70.0194C34.2786 69.7138 34.8672 69.3508 35.2468 69.2072C35.6659 69.0522 35.8918 68.597 35.7615 68.1695C35.6315 67.7419 35.1908 67.49 34.7558 67.5947C30.5602 68.6071 28.5086 70.0231 28.6579 71.8028C28.923 74.958 36.2319 76.5776 42.4109 77.0062C43.2994 77.067 44.2605 77.098 45.2665 77.098C45.2672 77.098 45.2675 77.098 45.2682 77.098C55.5428 77.098 68.7146 73.8743 68.8463 73.8415C69.1678 73.7622 69.413 73.5025 69.4741 73.1769Z" fill="#FA4454"/>
<path d="M37.9414 79.9496C38.2581 79.7432 38.3986 79.3518 38.2862 78.9912C38.174 78.6305 37.8367 78.3938 37.4578 78.3985C36.8955 78.4134 31.9559 78.6363 31.6101 81.7813C31.5054 82.7211 31.7746 83.5796 32.4105 84.333C34.1841 86.4348 38.9714 87.684 47.0438 88.1524C47.9989 88.2095 48.9687 88.2382 49.9275 88.2382C60.1903 88.2382 67.1021 85.0249 67.3915 84.8882C67.6721 84.7554 67.8572 84.4799 67.8737 84.1699C67.8903 83.8602 67.7356 83.566 67.4709 83.4043L62.1851 80.1775C62.0017 80.0657 61.7822 80.0286 61.5729 80.0715C61.5394 80.0786 58.1833 80.7746 53.1184 81.4625C52.16 81.5925 50.9598 81.6587 49.5516 81.6587C44.4921 81.6587 38.8646 80.832 37.7853 80.291C37.7698 80.1893 37.7897 80.061 37.9414 79.9496Z" fill="#FA4454"/>
<path d="M45.1446 97.9401C68.6521 97.9202 81.2691 93.7397 83.6996 91.109C84.56 90.178 84.6529 89.2969 84.5796 88.7214C84.3989 87.3051 83.1092 86.4382 82.9627 86.344C82.6098 86.1171 82.1363 86.1765 81.8611 86.4939C81.5865 86.8117 81.5801 87.2754 81.8557 87.5925C82.0039 87.7833 82.0897 88.1024 81.6561 88.5364C80.6845 89.4438 70.8844 92.1984 54.5672 93.0258C52.3319 93.1423 49.9876 93.2011 47.5993 93.2014C32.9896 93.2014 22.2976 91.2005 20.8941 90.0341C21.4354 89.257 25.217 88.015 29.2391 87.3129C29.6923 87.2339 29.9986 86.8066 29.9283 86.3521C29.8581 85.8976 29.439 85.5845 28.9811 85.6443C28.8676 85.6595 28.483 85.6831 28.0368 85.7101C21.4006 86.1154 13.7317 87.0187 13.3315 90.4376C13.21 91.4798 13.5196 92.4254 14.2521 93.2487C16.0443 95.2624 21.196 97.9397 45.1436 97.9397C45.1442 97.9401 45.1442 97.9401 45.1446 97.9401Z" fill="#FA4454"/>
<path d="M88.317 91.8504C87.9847 91.6967 87.5923 91.7744 87.3441 92.0418C87.3093 92.079 83.7752 95.7748 73.1487 97.9449C69.0804 98.7601 61.4439 99.1735 50.4513 99.1735C39.4381 99.1735 28.9588 98.7402 28.8541 98.7358C28.4164 98.7145 28.0419 99.0326 27.9825 99.4636C27.9227 99.8945 28.2003 100.3 28.6231 100.401C28.7322 100.427 39.7146 103 54.731 103C61.9332 103 68.9416 102.414 75.5619 101.26C87.906 99.0961 88.7702 92.9753 88.8009 92.7159C88.8438 92.3532 88.6486 92.004 88.317 91.8504Z" fill="#FA4454"/>
</svg>
