<svg width="103" height="103" viewBox="0 0 103 103" fill="none" xmlns="http://www.w3.org/2000/svg">
<path d="M76.3769 74.9809C77.0328 69.521 76.8356 68.7244 80.8993 69.6055L81.9333 69.6981C85.0595 69.8389 89.1473 69.1952 91.5896 68.0807C96.7597 65.6827 99.8255 61.6754 94.7278 62.7295C83.1001 65.1275 82.2552 61.1885 82.2552 61.1885C94.5387 42.9623 99.6767 19.8276 95.2388 14.1666C83.1524 -1.2834 62.2265 6.02316 61.8765 6.21629L61.7638 6.2364C59.4705 5.75359 56.9357 5.47195 53.9986 5.43172C48.7359 5.35125 44.7447 6.81176 41.711 9.10914C41.711 9.10914 4.38557 -6.26844 6.11967 28.4498C6.48983 35.8368 16.7013 84.3756 28.8923 69.69C33.3543 64.3228 37.6594 59.7884 37.6594 59.7884C39.7918 61.2086 42.3547 61.9328 45.0384 61.6713L45.2476 61.4943C45.1857 62.1897 45.2141 62.8903 45.3321 63.5784C42.1938 67.0869 43.1192 67.7025 36.8426 68.994C30.4937 70.3016 34.2274 72.6312 36.6576 73.2427C39.6108 73.983 46.4426 75.0291 51.0615 68.5675L50.8764 69.3038C52.1076 70.2895 52.0231 76.385 52.2041 80.7384C52.3852 85.0918 52.6708 89.1594 53.56 91.5534C54.4492 93.9473 55.4913 100.123 63.7393 98.3932C70.6315 96.9166 75.9022 94.7882 76.385 75.0171" fill="#FA4454"/>
<path d="M76.3769 74.9809C77.0328 69.521 76.8356 68.7244 80.8993 69.6055L81.9333 69.6981C85.0595 69.8389 89.1473 69.1952 91.5896 68.0807C96.7597 65.6827 99.8255 61.6753 94.7278 62.7295C83.1001 65.1275 82.2552 61.1885 82.2552 61.1885C94.5387 42.9623 99.6767 19.8276 95.2388 14.1666C83.1524 -1.2834 62.2265 6.02316 61.8765 6.21629L61.7638 6.2364C59.4704 5.75359 56.9357 5.47195 53.9986 5.43172C48.7359 5.35125 44.7447 6.81176 41.711 9.10914C41.711 9.10914 4.38557 -6.26844 6.11967 28.4498C6.48983 35.8368 16.7013 84.3756 28.8923 69.69C33.3543 64.3228 37.6594 59.7884 37.6594 59.7884C39.7918 61.2086 42.3547 61.9329 45.0384 61.6713L45.2476 61.4943C45.1857 62.1897 45.2141 62.8903 45.3321 63.5784C42.1938 67.0869 43.1192 67.7025 36.8426 68.994C30.4937 70.3016 34.2274 72.6312 36.6576 73.2427C39.6108 73.983 46.4426 75.0291 51.0615 68.5675L50.8764 69.3038C52.1076 70.2895 52.0231 76.385 52.2041 80.7384C52.3852 85.0918 52.6708 89.1594 53.56 91.5534C54.4492 93.9473 55.4913 100.123 63.7393 98.3932C70.6315 96.9166 75.9022 94.7882 76.385 75.0171" stroke="#FA4454" stroke-width="5.3725"/>
<path d="M94.6916 62.7657C83.0639 65.1636 82.219 61.2247 82.219 61.2247C94.5025 42.9985 99.6404 19.8638 95.2066 14.2028C83.1202 -1.24722 62.1943 6.06336 61.8443 6.25247L61.7316 6.27258C59.1757 5.75974 56.5771 5.48897 53.9704 5.46387C48.7077 5.3834 44.7165 6.84391 41.6828 9.14129C41.6828 9.14129 4.35337 -6.23628 6.09149 28.482C6.46165 35.869 16.6731 84.4077 28.8641 69.7222C33.3543 64.3227 37.6594 59.7883 37.6594 59.7883C39.7918 61.2086 42.3547 61.9328 45.0384 61.6713L45.2476 61.4943C45.1861 62.1897 45.2145 62.8902 45.3321 63.5784C42.1938 67.0868 43.1192 67.7024 36.8426 68.9939C30.4936 70.3016 34.2274 72.6311 36.6575 73.2427C39.6107 73.983 46.4425 75.0291 51.0615 68.5675L50.8764 69.3037C52.1075 70.2895 52.9686 75.7131 52.8237 80.6297C52.6789 85.5464 52.5823 88.918 53.5479 91.5574C54.5136 94.1968 55.4792 100.127 63.7272 98.3972C70.6194 96.9206 74.1882 93.0863 74.6911 86.7051C75.0452 82.1667 75.8418 82.8346 75.8981 78.7789L76.5419 76.8557C77.2782 70.6999 76.6626 68.7163 80.9073 69.6417L81.9413 69.7343C85.0675 69.8751 89.1594 69.2313 91.5574 68.1168C96.7275 65.7189 99.7933 61.7115 94.6956 62.7657H94.6916Z" fill="#FA4454"/>
<path d="M61.8403 6.06337C60.5528 6.46571 82.6173 -2.00362 95.1624 14.0217C99.5882 19.6827 94.4583 42.8175 82.1747 61.0436M51.5563 66.254C51.2345 77.7047 51.6368 89.2359 52.7553 92.004C53.8738 94.7721 56.2758 100.252 64.5279 98.4898C71.4201 97.0132 73.9307 94.1525 75.017 87.8397L77.5638 67.6542L51.5563 66.254ZM41.6667 8.85161C41.6667 8.85161 4.31314 -6.42135 6.05126 28.2969C6.42142 35.6839 16.6329 84.2227 28.8239 69.5371C33.2738 64.1739 37.2973 59.9774 37.2973 59.9774L41.6667 8.85161Z" stroke="white" stroke-width="1.79" stroke-linecap="round" stroke-linejoin="round"/>
<path d="M82.1787 61.0356C82.1787 61.0356 82.9834 64.9785 94.6514 62.5725C99.7491 61.5184 96.6792 65.5257 91.5131 67.9237C87.2724 69.8952 77.761 70.3981 77.6041 67.6823C77.2017 60.6614 82.6092 62.7938 82.2189 61.0356C81.8649 59.4503 79.4428 57.8973 77.8495 54.0187C76.4534 50.639 58.6979 24.6878 82.7742 28.5383C83.6593 28.3572 76.4976 5.60466 53.9664 5.27474C31.4351 4.94482 32.1473 32.9761 32.1473 32.9761" stroke="white" stroke-width="1.79" stroke-linecap="round" stroke-linejoin="bevel"/>
<path d="M45.2516 63.4416C42.1133 66.95 43.0387 67.5656 36.7622 68.8571C30.4132 70.1647 34.1469 72.4943 36.5771 73.1059C39.5303 73.8462 46.3621 74.8923 50.981 68.4266C52.3892 66.4551 50.9729 63.3168 49.0417 62.5202C48.1082 62.1339 46.861 61.6511 45.2597 63.4456L45.2516 63.4416Z" stroke="white" stroke-width="1.79" stroke-linejoin="round"/>
<path d="M45.0464 63.3813C44.7245 61.3172 45.7224 58.867 46.7886 55.9942C48.3899 51.6892 52.0834 47.3841 49.1302 33.7165C46.9294 23.5372 32.1513 31.5961 32.1513 32.9762C32.1513 34.3562 32.8192 39.9769 31.9099 46.515C30.7149 55.0528 37.3415 62.2708 44.97 61.5345" stroke="white" stroke-width="1.79" stroke-linecap="round" stroke-linejoin="round"/>
<path d="M41.5299 32.7709C41.4615 33.2417 42.395 34.501 43.606 34.67C44.8171 34.839 45.8511 33.8573 45.9195 33.3825C45.9879 32.9077 45.0545 32.3927 43.8434 32.2237C42.6324 32.0548 41.5903 32.3042 41.5299 32.7709Z" fill="white" stroke="white" stroke-width="0.5975"/>
<path d="M78.4007 31.8094C78.4651 32.2801 77.5357 33.5395 76.3246 33.7085C75.1136 33.8774 74.0715 32.8957 74.0112 32.4209C73.9508 31.9462 74.8762 31.4312 76.0872 31.2622C77.2983 31.0932 78.3404 31.3427 78.4007 31.8094Z" fill="white" stroke="white" stroke-width="0.2975"/>
<path d="M82.73 28.5464C82.9311 32.2479 81.9333 34.7626 81.8046 38.7015C81.6195 44.4229 84.5325 50.973 80.1429 57.5312" stroke="white" stroke-width="1.79" stroke-linecap="round" stroke-linejoin="round"/>
</svg>
