<svg width="81" height="99" viewBox="0 0 81 99" fill="none" xmlns="http://www.w3.org/2000/svg">
<path fill-rule="evenodd" clip-rule="evenodd" d="M72.4472 77.9785L29.1884 90.8753C28.887 90.9667 28.5671 90.9783 28.2598 90.9091C27.9526 90.8399 27.6686 90.6922 27.4355 90.4804C27.2024 90.2686 27.0282 90 26.9299 89.7008C26.8316 89.4016 26.8126 89.082 26.8748 88.7732L42.3315 14.1569C42.3969 13.8522 42.5561 13.5755 42.7868 13.3659C43.0175 13.1562 43.3081 13.0241 43.6178 12.9881C43.9274 12.9522 44.2405 13.0141 44.5132 13.1653C44.7858 13.3164 45.0042 13.5492 45.1377 13.8309L73.7514 75.0925C73.8797 75.3649 73.9474 75.6619 73.9498 75.9629C73.9521 76.264 73.8892 76.562 73.7652 76.8364C73.6412 77.1108 73.4591 77.355 73.2316 77.5521C73.004 77.7493 72.7364 77.8948 72.4472 77.9785ZM79.8669 74.9329L46.7438 4.00045C46.3366 3.12555 45.6988 2.37813 44.8988 1.83849C44.0988 1.29884 43.1669 0.987371 42.2032 0.937542C41.2394 0.871255 40.276 1.07227 39.4192 1.51845C38.5623 1.96462 37.8452 2.63864 37.3469 3.46626L1.42801 62.154C0.880077 63.0424 0.595124 64.0678 0.606175 65.1115C0.617226 66.1552 0.923828 67.1744 1.49044 68.0509L19.0562 95.4853C19.7181 96.5105 20.6943 97.2938 21.8386 97.7178C22.983 98.1417 24.2339 98.1836 25.404 97.8371L76.3946 82.6336C77.1648 82.4092 77.8771 82.0206 78.4826 81.4946C79.0881 80.9685 79.5724 80.3174 79.9021 79.5861C80.2318 78.8549 80.3991 78.0608 80.3924 77.2587C80.3857 76.4566 80.2052 75.6655 79.8634 74.9399L79.8669 74.9329Z" fill="#FA4454"/>
</svg>
