<svg width="100" height="101" viewBox="0 0 100 101" fill="none" xmlns="http://www.w3.org/2000/svg">
<path d="M99.6691 14.9093L52.6941 99.4186C51.7242 101.163 49.2325 101.174 48.248 99.4374L0.341575 14.9174C-0.730904 13.0253 0.877326 10.7334 3.00856 11.1166L50.0338 19.5731C50.3338 19.6271 50.641 19.6266 50.9409 19.5716L96.9828 11.1287C99.1069 10.7392 100.723 13.0134 99.6691 14.9093Z" fill="url(#paint0_linear_10_227)"/>
<path d="M72.4345 0.0247996L37.6716 6.8778C37.1003 6.99043 36.6772 7.47758 36.6428 8.0622L34.5043 44.3973C34.4541 45.2532 35.2353 45.9174 36.0655 45.7247L45.744 43.4775C46.6496 43.2674 47.4678 44.0698 47.2817 44.986L44.4062 59.1522C44.2127 60.1056 45.1024 60.9208 46.0279 60.638L52.0058 58.8108C52.9325 58.5278 53.823 59.3453 53.627 60.2995L49.0573 82.5513C48.7714 83.9432 50.6116 84.7022 51.379 83.5089L51.8917 82.7119L80.2184 25.8378C80.6928 24.8855 79.8748 23.7996 78.8352 24.0015L68.8728 25.9359C67.9366 26.1175 67.1401 25.2403 67.4043 24.3188L73.9066 1.64103C74.1711 0.717975 73.3717 -0.159933 72.4345 0.0247996Z" fill="url(#paint1_linear_10_227)"/>
<defs>
<linearGradient id="paint0_linear_10_227" x1="-0.828098" y1="17.9348" x2="50.2327" y2="86.8611" gradientUnits="userSpaceOnUse">
<stop stop-color="#FA4454"/>
<stop offset="1" stop-color="#FA4454"/>
</linearGradient>
<linearGradient id="paint1_linear_10_227" x1="54.3919" y1="1.88537" x2="64.9382" y2="73.7951" gradientUnits="userSpaceOnUse">
<stop stop-color="white"/>
<stop offset="0.0833333" stop-color="white"/>
<stop offset="1" stop-color="white"/>
</linearGradient>
</defs>
</svg>
