<svg width="95" height="104" viewBox="0 0 95 104" fill="none" xmlns="http://www.w3.org/2000/svg">
<path d="M43.2245 1.3203C45.8074 -0.149344 49.1718 -0.155983 51.7526 1.3203C64.7361 8.61284 77.7238 15.8939 90.7052 23.1909C93.1468 24.558 94.78 27.2591 94.7551 30.0556V73.9304C94.7733 76.8427 92.9787 79.6083 90.4028 80.9445C77.4619 88.1968 64.5276 95.458 51.5889 102.71C48.9525 104.209 45.5207 104.093 42.9666 102.472C39.0869 100.236 35.2006 98.0119 31.3205 95.7785C30.5277 95.3086 29.6339 94.9347 29.074 94.1705C29.569 93.5074 30.4538 93.4248 31.1729 93.1353C32.7923 92.6234 34.2797 91.8018 35.7675 91.0044C36.1437 90.7485 36.603 90.8466 36.9636 91.0756C40.2812 92.9664 43.5695 94.9122 46.8982 96.7849C47.6083 97.1924 48.3274 96.6514 48.9343 96.3151C61.6334 89.1807 74.348 82.0733 87.0448 74.9368C87.5152 74.7118 87.7753 74.2154 87.7371 73.7032C87.746 59.2299 87.7393 44.7539 87.7415 30.2806C87.7953 29.6994 87.457 29.165 86.9283 28.9271C74.0322 21.708 61.1429 14.4778 48.2491 7.25678C48.0257 7.10412 47.7611 7.02221 47.49 7.02182C47.2189 7.02142 46.954 7.10256 46.7302 7.25457C33.8364 14.4778 20.9492 21.7146 8.05544 28.9334C7.5286 29.1716 7.17502 29.6972 7.23773 30.2806C7.23995 44.7539 7.23773 59.2299 7.23773 73.7054C7.21537 73.9553 7.27059 74.2061 7.39597 74.4239C7.52134 74.6417 7.71083 74.8161 7.93894 74.9235C11.3797 76.863 14.8249 78.7889 18.2679 80.7217C20.2076 81.7595 22.5891 82.3761 24.7261 81.581C26.612 80.9087 27.9339 78.9958 27.8979 77.0054C27.9157 62.6165 27.889 48.2254 27.9113 33.8387C27.8642 33.2 28.4737 32.6722 29.0985 32.7324C30.7518 32.7213 32.4072 32.7102 34.0605 32.7368C34.7505 32.7213 35.2254 33.4091 35.1401 34.0526C35.1334 48.5326 35.1579 63.013 35.129 77.4929C35.1334 81.352 33.5384 85.5511 29.9474 87.4393C25.5235 89.7173 20.0555 89.2342 15.6849 87.0499C11.9014 85.1727 8.29066 82.9573 4.57423 80.9463C1.99161 79.6175 0.205925 76.8409 0.224105 73.9307V30.0556C0.197021 27.2012 1.89515 24.4511 4.41284 23.1039C17.3515 15.8456 30.288 8.58186 43.2245 1.3203Z" fill="#FA4454"/>
<path d="M54.5122 31.7126C60.1553 31.3515 66.1965 31.4987 71.2745 34.2621C75.2061 36.3797 77.3858 40.824 77.4552 45.1658C77.3454 45.7515 76.7295 46.0746 76.167 46.0344C74.5298 46.0321 72.8921 46.0565 71.2548 46.0233C70.5603 46.0498 70.1566 45.4133 70.0695 44.803C69.599 42.7255 68.4593 40.668 66.4922 39.666C63.4725 38.1632 59.9712 38.2388 56.6785 38.2701C54.2747 38.397 51.6899 38.6039 49.6534 40.009C48.0899 41.0733 47.615 43.2219 48.173 44.9523C48.6991 46.1948 50.142 46.5957 51.3226 46.9652C58.1232 48.7332 65.3298 48.5573 72.0006 50.884C74.7624 51.8325 77.4641 53.6765 78.4095 56.5509C79.646 60.4033 79.104 65.0081 76.3466 68.1008C74.1105 70.6459 70.8538 72.031 67.6056 72.7834C63.2844 73.7411 58.7999 73.7655 54.4116 73.3403C50.2852 72.8726 45.9911 71.795 42.8056 69.0003C40.0816 66.6492 38.7512 62.986 38.8833 59.4504C38.9148 58.8533 39.5129 58.4369 40.0883 58.486C41.7371 58.4727 43.3859 58.4683 45.0346 58.4882C45.6932 58.4413 46.1814 59.0071 46.2152 59.6241C46.5194 61.6034 47.2678 63.6808 49.0041 64.8543C52.3551 67.0033 56.5598 66.8561 60.3968 66.9162C63.5756 66.7761 67.144 66.7337 69.7381 64.6452C71.1068 63.454 71.5123 61.461 71.1424 59.7465C70.7417 58.299 69.2184 57.6245 67.9102 57.1834C61.1967 55.0724 53.9096 55.8384 47.2611 53.4512C44.562 52.503 41.9519 50.7103 40.9149 47.9539C39.468 44.0528 40.131 39.2275 43.1773 36.2392C46.1477 33.2667 50.4355 32.122 54.5122 31.7122V31.7126Z" fill="#FA4454"/>
</svg>
